<svg width="48" height="48" viewBox="0 0 48 48" fill="none" xmlns="http://www.w3.org/2000/svg">
<path d="M16.9109 35.3176L5.91966 46.3088C4.91373 47.3147 3.28285 47.3147 2.27691 46.3088C1.27098 45.3029 1.27098 43.672 2.27691 42.6661L13.2682 31.6748L16.9109 35.3176Z" fill="#24BECA"/>
<path d="M42.9468 22.219V22.9709C42.9468 24.6319 41.6003 25.9785 39.9392 25.9785C38.2782 25.9785 36.9316 24.6319 36.9316 22.9709V22.219C36.9316 20.558 38.2782 19.2114 39.9392 19.2114C41.6003 19.2114 42.9468 20.558 42.9468 22.219Z" fill="white"/>
<path d="M41.9675 25.9788H37.9113C35.0974 25.9788 32.8164 28.2599 32.8164 31.0737V32.9613H47.0625V31.0737C47.0625 28.2598 44.7813 25.9788 41.9675 25.9788Z" fill="#24BECA"/>
<path d="M5.05322 22.219V22.9709C5.05322 24.6319 6.39975 25.9785 8.06082 25.9785C9.72188 25.9785 11.0684 24.6319 11.0684 22.9709V22.219C11.0684 20.558 9.72188 19.2114 8.06082 19.2114C6.39975 19.2114 5.05322 20.558 5.05322 22.219Z" fill="white"/>
<path d="M6.03244 25.9788H10.0886C12.9025 25.9788 15.1836 28.2599 15.1836 31.0737V32.9613H0.9375V31.0737C0.9375 28.2598 3.21863 25.9788 6.03244 25.9788Z" fill="#24BECA"/>
<path d="M24 36.7764C31.1452 36.7764 36.9375 30.9841 36.9375 23.8389C36.9375 16.6937 31.1452 10.9014 24 10.9014C16.8548 10.9014 11.0625 16.6937 11.0625 23.8389C11.0625 30.9841 16.8548 36.7764 24 36.7764Z" fill="#24BECA"/>
<path d="M24.0001 33.0234C29.0727 33.0234 33.1848 28.9113 33.1848 23.8387C33.1848 18.7662 29.0727 14.6541 24.0001 14.6541C18.9276 14.6541 14.8154 18.7662 14.8154 23.8387C14.8154 28.9113 18.9276 33.0234 24.0001 33.0234Z" fill="white"/>
<path d="M26.9131 22.6619V23.3901C26.9131 24.999 25.6089 26.3032 24 26.3032C22.3912 26.3032 21.0869 24.999 21.0869 23.3901V22.6619C21.0869 21.053 22.3912 19.7488 24 19.7488C25.6089 19.7487 26.9131 21.0529 26.9131 22.6619Z" fill="white"/>
<path d="M24.0002 26.3035C21.1565 26.3035 18.727 28.07 17.7446 30.5648C19.385 32.091 21.5829 33.026 24.0002 33.026C26.4175 33.026 28.6154 32.091 30.2557 30.5648C29.2733 28.07 26.8439 26.3035 24.0002 26.3035Z" fill="#24BECA"/>
<path d="M43.2126 25.1709C43.6367 24.542 43.8846 23.7849 43.8846 22.9709V22.219C43.8846 20.0437 42.1147 18.2739 39.9395 18.2739C38.8541 18.2739 37.8698 18.7146 37.1558 19.4264C35.3083 13.9319 30.109 9.96313 24 9.96313C17.891 9.96313 12.6917 13.9319 10.8442 19.4264C10.1302 18.7146 9.14597 18.2739 8.06053 18.2739C5.88525 18.2739 4.11544 20.0437 4.11544 22.219V22.9709C4.11544 23.7849 4.36331 24.542 4.78744 25.1709C2.05659 25.7463 0 28.174 0 31.0735V32.961C0 33.4787 0.419813 33.8985 0.9375 33.8985H5.8125C6.33019 33.8985 6.75 33.4787 6.75 32.961C6.75 32.4434 6.33019 32.0235 5.8125 32.0235H1.875V31.0735C1.875 28.781 3.74006 26.916 6.03253 26.916H10.4696C10.8294 28.4985 11.4601 29.9794 12.311 31.3064L1.61419 42.0031C0.2445 43.3729 0.2445 45.6018 1.61428 46.9717C2.29922 47.6566 3.19875 47.999 4.09847 47.999C4.99819 47.999 5.89791 47.6565 6.58284 46.9717L12.48 41.0745C12.8461 40.7084 12.8461 40.1147 12.48 39.7485C12.1138 39.3825 11.5204 39.3825 11.1541 39.7485L5.25703 45.6458C4.61812 46.2846 3.57881 46.2845 2.94 45.6459C2.30128 45.0071 2.30128 43.9677 2.94 43.3289L13.4407 32.8283C15.9876 35.8154 19.7761 37.7131 24 37.7131C30.5933 37.7131 36.1266 33.0903 37.5304 26.916H41.9675C44.2599 26.916 46.125 28.781 46.125 31.0735V32.0235H37.3125C36.7948 32.0235 36.375 32.4434 36.375 32.961C36.375 33.4787 36.7948 33.8985 37.3125 33.8985H47.0625C47.5802 33.8985 48 33.4787 48 32.961V31.0735C48 28.174 45.9434 25.7463 43.2126 25.1709ZM37.8693 22.2191C37.8693 21.0776 38.7979 20.149 39.9394 20.149C41.0809 20.149 42.0095 21.0776 42.0095 22.2191V22.971C42.0095 24.1125 41.0809 25.041 39.9394 25.041C38.7979 25.041 37.8693 24.1125 37.8693 22.971V22.2191ZM5.99044 22.2191C5.99044 21.0776 6.91903 20.149 8.06053 20.149C9.20203 20.149 10.1306 21.0776 10.1306 22.2191V22.971C10.1306 24.1125 9.20203 25.041 8.06053 25.041C6.91903 25.041 5.99044 24.1125 5.99044 22.971V22.2191ZM24 35.8381C17.3832 35.8381 12 30.4549 12 23.8381C12 17.2214 17.3832 11.8381 24 11.8381C30.6168 11.8381 36 17.2214 36 23.8381C36 30.4549 30.6168 35.8381 24 35.8381Z" fill="#151515"/>
<path d="M24 13.7134C18.417 13.7134 13.875 18.2554 13.875 23.8384C13.875 26.7362 15.099 29.3532 17.0567 31.2006C17.0902 31.2368 17.1261 31.2709 17.1654 31.3018C18.9679 32.9538 21.3682 33.9634 24 33.9634C26.6318 33.9634 29.0321 32.9537 30.8346 31.3018C30.8739 31.271 30.9098 31.2368 30.9433 31.2006C32.901 29.3532 34.125 26.7362 34.125 23.8384C34.125 18.2555 29.583 13.7134 24 13.7134ZM18.8909 30.3114C19.887 28.4267 21.8282 27.2408 24 27.2408C26.1718 27.2408 28.113 28.4267 29.1091 30.3114C27.703 31.4236 25.9278 32.0884 24 32.0884C22.0722 32.0884 20.297 31.4236 18.8909 30.3114ZM22.0244 23.3903V22.6619C22.0244 21.5725 22.9106 20.6863 24 20.6863C25.0894 20.6863 25.9756 21.5725 25.9756 22.6619V23.3903C25.9756 24.4796 25.0894 25.3658 24 25.3658C22.9106 25.3658 22.0244 24.4796 22.0244 23.3903ZM30.4805 28.9383C29.6216 27.5679 28.3645 26.5229 26.8932 25.927C27.4884 25.2489 27.8506 24.3614 27.8506 23.3903V22.662C27.8506 20.5388 26.1232 18.8114 24 18.8114C21.8768 18.8114 20.1494 20.5388 20.1494 22.662V23.3903C20.1494 24.3614 20.5115 25.2489 21.1068 25.927C19.6355 26.523 18.3785 27.5679 17.5195 28.9383C16.4118 27.5337 15.75 25.7619 15.75 23.8384C15.75 19.2893 19.451 15.5884 24 15.5884C28.549 15.5884 32.25 19.2893 32.25 23.8384C32.25 25.7619 31.5882 27.5337 30.4805 28.9383Z" fill="#151515"/>
<path d="M14.3252 36.9663C14.0786 36.9663 13.8368 37.0666 13.6624 37.241C13.4881 37.4154 13.3877 37.6572 13.3877 37.9038C13.3877 38.1504 13.488 38.3922 13.6624 38.5666C13.8368 38.7409 14.0786 38.8413 14.3252 38.8413C14.5718 38.8413 14.8136 38.741 14.988 38.5666C15.1623 38.3922 15.2627 38.1504 15.2627 37.9038C15.2627 37.6572 15.1624 37.4154 14.988 37.241C14.8136 37.0666 14.5718 36.9663 14.3252 36.9663Z" fill="#151515"/>
<path d="M24.019 5.06573C24.5367 5.06573 24.9565 4.64591 24.9565 4.12823V0.938477C24.9565 0.420789 24.5367 0.000976562 24.019 0.000976562C23.5014 0.000976562 23.0815 0.420789 23.0815 0.938477V4.12823C23.0815 4.64601 23.5014 5.06573 24.019 5.06573Z" fill="#151515"/>
<path d="M24.0186 8.15723C24.2661 8.15723 24.507 8.05691 24.6813 7.88245C24.8557 7.70816 24.9561 7.46629 24.9561 7.21973C24.9561 6.97316 24.8558 6.73129 24.6813 6.55691C24.507 6.38254 24.266 6.28223 24.0186 6.28223C23.7719 6.28223 23.5301 6.38245 23.3557 6.55691C23.1814 6.73138 23.0811 6.97316 23.0811 7.21973C23.0811 7.46629 23.1813 7.70816 23.3557 7.88245C23.5301 8.05682 23.7719 8.15723 24.0186 8.15723Z" fill="#151515"/>
<path d="M29.6563 6.92656C29.8963 6.92656 30.1361 6.83496 30.3192 6.65196L31.967 5.00421C32.3331 4.63812 32.3331 4.0445 31.967 3.67831C31.6008 3.31231 31.0074 3.31231 30.6411 3.67831L28.9933 5.32606C28.6272 5.69215 28.6272 6.28578 28.9933 6.65196C29.1765 6.83496 29.4163 6.92656 29.6563 6.92656Z" fill="#151515"/>
<path d="M17.697 6.66342C17.8801 6.84642 18.12 6.93801 18.36 6.93801C18.5999 6.93801 18.8398 6.84642 19.0229 6.66342C19.389 6.29732 19.389 5.7037 19.0229 5.33751L17.3593 3.67391C16.9931 3.30791 16.3996 3.30791 16.0334 3.67391C15.6673 4.04001 15.6673 4.63363 16.0334 4.99982L17.697 6.66342Z" fill="#151515"/>
</svg>
