<svg width="48" height="48" viewBox="0 0 48 48" fill="none" xmlns="http://www.w3.org/2000/svg">
<g clip-path="url(#clip0_294:526)">
<path d="M6.10003 35.8753C7.70006 35.1753 9.50006 35.9754 10.2 37.5753C10.9 39.1753 10.1 40.9753 8.50003 41.6753C6.9 42.2754 0 41.7753 0 41.7753C0 41.7753 4.5 36.4753 6.10003 35.8753Z" fill="#976695"/>
<path d="M8.19978 36.6754C8.99975 36.3754 9.79981 36.6754 10.1997 37.4754C10.4997 38.2753 10.1997 39.0754 9.39978 39.4753C8.59981 39.7753 5.2998 39.5753 5.2998 39.5753C5.2998 39.5753 7.39971 37.0754 8.19978 36.6754Z" fill="#24BECA"/>
<path d="M9.5999 32.6754L16.0999 29.6754C13.3999 26.2754 8.3999 25.4754 4.7999 27.9754C3.79987 28.6755 2.9999 29.5755 2.3999 30.5754C4.99987 30.0753 7.69987 30.8754 9.5999 32.6754Z" fill="#24BECA"/>
<path d="M13.3998 40.8752L19.8998 37.8752C20.6998 42.1753 18.0998 46.3753 13.7998 47.5753C12.5998 47.8753 11.3998 47.9753 10.2998 47.7753C12.2999 46.0753 13.4999 43.5753 13.3998 40.8752Z" fill="#24BECA"/>
<path d="M41.2002 29.2754C33.2003 36.8755 28.9002 37.0754 12.9002 41.6755L8.7002 32.5754C22.6002 23.4754 25.6002 20.3755 36.5002 19.2754C39.4002 22.0754 41.1002 25.3754 41.2002 29.2754Z" fill="#E6F4F4"/>
<path d="M36.6001 19.1753C39.4001 21.9753 41.1001 25.2753 41.2001 29.1753L48.0001 19.9753L36.6001 19.1753Z" fill="#24BECA"/>
<path d="M7.1001 32.7754L11.7001 42.7754C12.1002 42.4754 12.5001 42.0754 12.9001 41.6755L8.70013 32.5754C8.20016 32.5754 7.60016 32.6755 7.1001 32.7754Z" fill="#180F12"/>
<path d="M33.8999 3.67546C33.8999 3.67546 35.3999 3.1755 35.6999 2.97543C35.9999 2.77537 36.6999 2.47547 36.7999 2.37543C36.8998 2.2754 37.3999 2.07543 37.5998 2.17547C37.6999 2.2755 38.3998 3.1755 38.2999 3.37547C38.1998 3.57543 38.0999 3.57543 38.0999 3.57543C38.0999 3.57543 38.2999 3.87543 37.9999 4.0754C37.6999 4.27537 36.8999 4.27537 36.5999 4.17543C36.2999 4.0754 35.8999 3.97547 35.8999 3.97547L34.2998 4.9755L33.8999 3.67546Z" fill="#24BECA"/>
<path d="M32.7002 3.97542L34.4002 3.27539C34.4002 3.27539 34.9001 4.97536 35.1002 5.17542L33.5002 5.97539L32.7002 3.97542Z" fill="#F7FEFF"/>
<path d="M23.1 35.2754C23.1 35.2754 23 34.2753 23.9 33.4754C24.9 32.6754 24.9 31.7754 24.9 31.7754L22.7 31.9754C22.7 31.9754 22.1 32.4753 21.6 32.5754C21.2 32.6754 21.2 32.6754 21.2 32.6754C21.2 32.6754 20.7 35.7753 23.1 35.2754Z" fill="white"/>
<path d="M18.1997 20.2754C18.1997 20.2754 16.6997 23.4753 21.0996 24.9753C25.5996 26.5754 28.0997 27.5753 28.0997 27.5753C28.0997 27.5753 25.3997 29.5753 24.1997 30.5753C22.9997 31.5753 21.8997 32.3753 21.8997 32.3753C21.8997 32.3753 23.0997 33.7753 23.8997 34.1753C24.6996 34.5753 25.6997 35.4753 25.6997 35.4753L29.5997 30.8753C29.5997 30.8753 32.6997 28.9753 32.9997 28.0753C33.2997 27.1753 32.8997 25.8752 32.1997 25.1753C31.3997 24.4754 26.9997 21.1754 26.9997 21.1754C26.9997 21.1754 25.5997 17.9754 25.1997 16.0754C24.7997 14.1753 24.2997 12.9753 24.2997 12.9753L18.1997 20.2754Z" fill="#151515"/>
<path d="M24.5 7.27536C24.5 7.27536 25.2 7.17533 26.4 6.77539C27.6 6.37536 29.3 5.57539 30.2 5.07542C31.1 4.57545 33.2 3.77539 33.2 3.77539C33.2 3.77539 33.5 5.57539 34.4 6.07536C34.4 6.07536 31.5 7.37539 30.8 7.77533C30.1 8.17527 25.7 10.2754 25 10.4753L24.5 7.27536Z" fill="#180F12"/>
<path d="M24.3998 7.07544C24.3998 7.07544 25.0998 7.57541 24.9998 9.77544C24.8997 11.9755 24.7998 12.0754 24.9998 13.4755C25.1997 14.8754 26.8998 20.6755 26.8998 21.0755C26.8998 21.4755 26.7998 21.0755 26.7998 21.0755C26.7998 21.0755 25.1997 20.0755 25.0998 18.5755C24.9998 17.0755 23.6998 13.6754 23.8998 12.6755C24.0998 11.6755 24.3998 7.07544 24.3998 7.07544Z" fill="#180F12"/>
<path d="M10.4 15.7753C10.4 15.7753 10.3 16.0753 9.2 15.2754C8.10003 14.4754 8 14.2753 8 14.2753L9.39997 14.1753C9.40006 14.1753 10.5 14.6754 10.4 15.7753Z" fill="#180F12"/>
<path d="M23.7999 8.27553C23.9999 7.07553 24.2999 6.27556 24.6999 6.3755C26.3999 6.6755 26.4999 5.7755 26.4999 5.67547C26.4999 5.57544 26.4999 5.4755 26.5999 5.27544C26.7 5.07538 26.4999 4.97544 26.4999 4.97544C26.5999 4.97544 26.6999 4.87541 26.5999 4.77547C26.4999 4.5755 26.4999 4.47547 26.4999 4.47547C26.4999 4.47547 26.7999 4.37544 26.8999 4.37544C27 4.27541 27 4.27541 26.8999 4.07544C26.7 3.77544 25.9999 2.97547 25.9999 2.97547C25.9999 2.97547 26.1 2.97547 25.9999 2.57544C25.8999 2.17541 25.0999 1.07544 25.0999 1.07544L21.3999 3.37541L20.8999 5.67538C20.8999 5.67538 20.1 7.77538 19.8999 8.27535L23.7999 8.27553Z" fill="#24BECA"/>
<path d="M24.3001 6.67529L23.6001 7.17536L23.8002 8.27532L24.3001 7.37532V6.67529Z" fill="#F7FEFF"/>
<path d="M21.5002 4.97534L23.6002 7.17537L22.7002 8.17531L20.7002 5.57534L21.5002 4.97534Z" fill="#F7FEFF"/>
<path d="M23.6998 3.77541L24.0998 3.57544C24.0998 3.57544 23.8999 3.17541 23.9998 2.77547C24.0998 2.37544 24.3998 2.17547 24.4998 1.87547C24.5997 1.57547 25.2997 1.47544 25.2997 1.47544C25.2997 1.47544 25.4997 0.975469 25.1997 0.575438C24.9997 -0.0245622 23.9997 0.0754691 22.8997 0.275438C21.7998 0.475407 20.5998 1.07541 20.3997 1.57547C20.0997 2.07544 20.5997 4.47544 20.7997 5.07544C20.9997 5.67544 22.3998 4.67541 22.4997 4.17544C22.5997 3.67547 22.3997 3.57544 22.7997 3.27544C23.1998 2.87541 23.6998 3.77541 23.6998 3.77541Z" fill="#180F12"/>
<path d="M23.5443 3.35965C23.3365 2.96975 22.9705 2.75895 22.7269 2.88881C22.4832 3.01867 22.4541 3.44002 22.6619 3.82992C22.8696 4.21981 23.2356 4.43062 23.4793 4.30075C23.723 4.17089 23.7521 3.74954 23.5443 3.35965Z" fill="#24BECA"/>
<path d="M24.2998 6.67529C24.2998 6.67529 23.6998 7.47526 23.7998 8.67526C23.8999 9.87527 23.9998 12.5753 23.9998 12.5753C23.9998 12.5753 24.2998 11.5752 24.5998 11.0753C24.8998 10.4753 25.0998 9.77523 25.0998 9.0753C25.0998 8.37526 24.6997 7.97533 24.6997 7.97533L24.8997 7.87529C24.8998 7.87529 24.5998 6.67529 24.2998 6.67529Z" fill="#151515"/>
<path d="M13.2 19.6753V26.4752C13.2 26.7752 13.0001 26.9752 12.7001 26.9752H3.10007C2.80007 26.9752 2.6001 26.7752 2.6001 26.4752V19.6753C2.6001 19.3753 2.80007 19.1753 3.10007 19.1753H12.8001C13.0001 19.1753 13.2 19.3753 13.2 19.6753Z" fill="#24BECA"/>
<path d="M6.69997 19.4753V18.5753C6.69997 18.4753 6.8 18.4753 6.8 18.4753H8.99993C9.09997 18.4753 9.09997 18.5753 9.09997 18.5753V19.4753H9.89993V18.5753C9.89993 18.0753 9.4999 17.6753 8.99993 17.6753H6.7999C6.29993 17.6753 5.8999 18.0753 5.8999 18.5753V19.4753H6.69997Z" fill="#976695"/>
<path d="M9.89975 15.4754C9.89975 15.4754 9.69978 16.2754 9.69978 16.3754C9.69978 16.4754 10.0998 16.9754 10.1997 17.2754C10.2998 17.5754 9.99978 18.2754 9.89975 18.3754C9.89975 18.3754 9.79971 18.0754 9.69978 17.9754C9.59975 17.8753 9.49981 17.9754 9.29974 18.1753C9.09978 18.2754 8.89971 18.5754 8.79978 18.7753C8.79978 18.8754 8.69974 18.8754 8.59981 18.8754C8.49987 18.8754 8.29981 18.7753 8.29981 18.6754C8.29981 18.6754 7.89977 18.7754 7.79984 18.6754C7.79984 18.6754 7.29987 18.6754 7.19984 18.5754C7.19984 18.5754 6.7998 18.6754 6.7998 18.2754C6.89984 17.9754 7.19984 17.2753 7.39981 16.9753C7.59977 16.4754 7.89978 15.7753 8.19978 15.3753C8.89981 14.1753 9.49981 14.1753 9.49981 14.1753L9.89975 15.4754Z" fill="#24BECA"/>
<path d="M8.2002 15.0754C8.2002 15.0754 9.80023 15.3754 9.90016 16.0754L10.9002 14.5754L9.20023 13.2754L8.2002 15.0754Z" fill="#F7FEFF"/>
<path d="M16.1 6.67529C16.1 6.67529 15.9 7.17526 14 8.17529C12.1 9.17532 11 10.9753 9.99997 11.9753C8.99994 12.9752 8 14.2752 8 14.2752C8 14.2752 9.99997 14.8752 10.4 15.7752C10.4 15.7752 11.4 14.0753 12 13.4753C12.6 12.8753 13.2 12.1752 13.3001 12.0753C13.4001 11.9753 15.2001 11.2753 15.7001 11.0753C16.2 10.8752 16.8 10.5753 16.8 10.5753C16.8 10.5753 17.6 7.07532 16.1 6.67529Z" fill="#151515"/>
<path d="M20.7001 5.07544C20.7001 5.07544 20.3001 5.47547 19.6002 5.47547C18.9001 5.5755 18.5002 5.2755 17.7001 5.17547C16.9002 5.07544 16.2001 6.1755 16.1001 6.57544C16.0001 6.97547 16.6001 15.6755 16.6001 16.6754C16.6001 17.6754 16.7001 21.5754 16.7001 21.5754C16.7001 21.5754 21.1001 21.7754 22.5001 21.0755C23.9001 20.3754 24.3001 19.6755 24.5001 18.9755C24.6001 18.2754 24.1001 12.5754 24.1001 12.5754C24.1001 12.5754 24.3001 11.5754 23.5001 10.4754C22.7001 9.37547 20.7001 5.07544 20.7001 5.07544Z" fill="#180F12"/>
<path d="M24.0001 12.6755C24.0001 12.6755 24.0001 11.5755 23.7001 11.1755C23.4001 10.6755 22.9001 10.4755 22.7001 10.0755C22.5001 9.67549 21.9001 8.37555 21.5001 7.87549C21.1 7.37552 20.6001 6.27546 20.6001 6.27546L20.9001 5.97546L20.1001 5.77549L20.7001 4.87549C20.7001 4.97552 20.8001 5.07546 20.8001 5.07546C20.9002 5.27543 21.1001 5.27543 21.3001 5.17549C21.6001 5.77549 22.0001 6.47552 22.4001 6.97549C22.9 7.67552 23.1001 8.67546 23.2 9.17552C23.2 9.67549 23.9001 10.6755 24 11.0756C24.1001 11.4755 24.0001 12.6755 24.0001 12.6755Z" fill="#151515"/>
<g style="mix-blend-mode:overlay">
<path d="M5.2 19.1753H4V26.9753H5.2V19.1753Z" fill="#24BECA"/>
</g>
<g style="mix-blend-mode:overlay">
<path d="M11.8001 19.1753H10.6001V26.9753H11.8001V19.1753Z" fill="#24BECA"/>
</g>
<path d="M21.7002 32.5754C21.7002 32.5754 21.6002 33.2754 21.8002 33.7754C22.1002 34.3754 22.9002 34.2754 23.2002 34.4754C23.5002 34.6754 23.0002 36.5754 23.4002 37.7754C23.8002 38.9754 24.2001 39.3755 23.9002 39.5754C23.6002 39.7754 23.1002 39.3755 22.6001 38.7755C22.1002 38.1755 21.2002 36.8754 21.1001 36.2754C21.0001 35.5754 20.8001 35.2754 20.8001 35.2754L20.3002 35.4754L19.2002 33.6754L19.9002 33.2753C19.9002 33.1754 20.7002 31.9754 21.7002 32.5754Z" fill="#180F12"/>
</g>
<defs>
<clipPath id="clip0_294:526">
<rect width="48" height="48" fill="white"/>
</clipPath>
</defs>
</svg>
