<svg width="190" height="12" viewBox="0 0 190 12" fill="none" xmlns="http://www.w3.org/2000/svg">
<path fill-rule="evenodd" clip-rule="evenodd" d="M5.42844 9.62378C5.41401 10.9383 4.20437 12 2.71429 12C1.21523 12 0 10.9255 0 9.6C0 7.47408 1.57094 5.90166 3.18579 4.85912C4.85853 3.7792 7.10473 2.90694 9.63619 2.21569C14.7321 0.824177 21.6065 0 29.0816 0C32.9848 0 35.8781 0.483918 38.258 1.28041C40.5847 2.05908 42.2892 3.09884 43.7421 3.98515L43.8065 4.0244C45.2907 4.92967 46.5216 5.67061 48.1943 6.23041C49.8481 6.78392 52.071 7.2 55.449 7.2C58.827 7.2 61.0498 6.78392 62.7037 6.23041C64.3763 5.67061 65.6072 4.92967 67.0915 4.0244L67.1558 3.98515C68.6088 3.09884 70.3133 2.05908 72.6399 1.28041C75.0198 0.483918 77.9132 0 81.8163 0C85.7195 0 88.6128 0.483918 90.9927 1.28041C93.3194 2.05909 95.0239 3.09886 96.4769 3.98518L96.5412 4.0244C98.0254 4.92967 99.2563 5.67061 100.929 6.23041C102.583 6.78392 104.806 7.2 108.184 7.2C111.562 7.2 113.784 6.78392 115.438 6.23041C117.111 5.67061 118.342 4.92967 119.826 4.0244L119.89 3.98518C121.343 3.09886 123.048 2.05909 125.375 1.28041C127.754 0.483917 130.648 0 134.551 0C138.454 0 141.348 0.483918 143.727 1.28041C146.054 2.05908 147.759 3.09881 149.211 3.98512L149.276 4.0244C150.76 4.92967 151.991 5.67061 153.664 6.23041C155.318 6.78392 157.54 7.2 160.918 7.2C168.006 7.2 174.315 6.4124 178.762 5.19803C181.002 4.58634 182.617 3.90712 183.613 3.26425C184.427 2.73889 184.555 2.42739 184.572 2.3762C184.586 1.06168 185.796 0 187.286 0C188.785 0 190 1.07452 190 2.4C190 4.52592 188.429 6.09834 186.814 7.14088C185.141 8.22081 182.895 9.09306 180.364 9.78431C175.268 11.1758 168.393 12 160.918 12C157.015 12 154.122 11.5161 151.742 10.7196C149.415 9.94091 147.711 8.90114 146.258 8.01482L146.194 7.9756C144.709 7.07033 143.478 6.32939 141.806 5.76959C140.152 5.21608 137.929 4.8 134.551 4.8C131.173 4.8 128.95 5.21608 127.296 5.76959C125.624 6.32939 124.393 7.07033 122.909 7.9756L122.844 8.01482C121.391 8.90114 119.687 9.94091 117.36 10.7196C114.98 11.5161 112.087 12 108.184 12C104.281 12 101.387 11.5161 99.0073 10.7196C96.6807 9.94092 94.9762 8.90119 93.5232 8.01488L93.4588 7.9756C91.9745 7.07033 90.7437 6.32939 89.071 5.76959C87.4172 5.21608 85.1943 4.8 81.8163 4.8C78.4383 4.8 76.2155 5.21608 74.5616 5.76959C72.889 6.32939 71.6581 7.07033 70.1738 7.9756L70.1095 8.01482C68.6565 8.90114 66.952 9.94091 64.6254 10.7196C62.2455 11.5161 59.3521 12 55.449 12C51.5459 12 48.6525 11.5161 46.2726 10.7196C43.9459 9.94092 42.2414 8.90116 40.7885 8.01484L40.7241 7.9756C39.2399 7.07033 38.009 6.32939 36.3363 5.76959C34.6825 5.21608 32.4596 4.8 29.0816 4.8C21.9945 4.8 15.6852 5.5876 11.238 6.80197C8.99792 7.41366 7.38271 8.09288 6.38694 8.73575C5.57326 9.26106 5.44476 9.57255 5.42844 9.62378Z" fill="#24BECA"/>
</svg>
