<svg width="48" height="48" viewBox="0 0 48 48" fill="none" xmlns="http://www.w3.org/2000/svg">
<g clip-path="url(#clip0_294:423)">
<path d="M44 2.40015H4V26.4001H44V2.40015Z" fill="#7F7E7E"/>
<path d="M41.6 2.40015H4V26.4001H41.6V2.40015Z" fill="#24BECA"/>
<path d="M23.9998 37.5999C25.7671 37.5999 27.1997 36.1672 27.1997 34.3999C27.1997 32.6326 25.7671 31.2 23.9998 31.2C22.2325 31.2 20.7998 32.6326 20.7998 34.3999C20.7998 36.1672 22.2325 37.5999 23.9998 37.5999Z" fill="white"/>
<path d="M19.1997 46.4001V42.1715C19.3247 39.6115 21.4367 37.6001 23.9997 37.6001C26.5627 37.6001 28.6747 39.6116 28.7997 42.1715V46.4001H19.1997Z" fill="#24BECA"/>
<path d="M39.2 37.5999C40.9673 37.5999 42.3999 36.1672 42.3999 34.3999C42.3999 32.6326 40.9673 31.2 39.2 31.2C37.4327 31.2 36 32.6326 36 34.3999C36 36.1672 37.4327 37.5999 39.2 37.5999Z" fill="white"/>
<path d="M34.3999 46.4001V42.1715C34.5249 39.6115 36.6369 37.6001 39.1999 37.6001C41.7629 37.6001 43.8749 39.6116 43.9999 42.1715V46.4001H34.3999Z" fill="#24BECA"/>
<path d="M8.79958 37.5999C10.5669 37.5999 11.9996 36.1672 11.9996 34.3999C11.9996 32.6326 10.5669 31.2 8.79958 31.2C7.03229 31.2 5.59961 32.6326 5.59961 34.3999C5.59961 36.1672 7.03229 37.5999 8.79958 37.5999Z" fill="white"/>
<path d="M4 46.4V42.1714C4.06459 39.5842 6.21278 37.5384 8.8 37.6C11.3872 37.5384 13.5353 39.5842 13.6 42.1714V46.4H4Z" fill="#24BECA"/>
<path d="M2.39984 0.800049H45.5998C46.4835 0.800049 47.1999 1.51639 47.1999 2.40008C47.1999 3.28377 46.4835 4.00011 45.5998 4.00011H2.39984C1.51615 4.00011 0.799805 3.28377 0.799805 2.40008C0.799805 1.51639 1.51615 0.800049 2.39984 0.800049Z" fill="#7F7E7E"/>
<path d="M2.39984 24.8H45.5998C46.4835 24.8 47.1999 25.5164 47.1999 26.4001C47.1999 27.2838 46.4835 28.0001 45.5998 28.0001H2.39984C1.51615 28.0001 0.799805 27.2838 0.799805 26.4001C0.799805 25.5164 1.51615 24.8 2.39984 24.8Z" fill="#7F7E7E"/>
<path d="M2.35821 0.800049H43.2414C44.1021 0.800049 44.7998 1.49774 44.7998 2.35846V2.44161C44.7998 3.30233 44.1021 4.00002 43.2414 4.00002H2.35821C1.49749 4.00002 0.799805 3.30233 0.799805 2.44161V2.35846C0.799805 1.49783 1.49759 0.800049 2.35821 0.800049Z" fill="white"/>
<path d="M2.35821 24.8H43.2414C44.1021 24.8 44.7998 25.4977 44.7998 26.3585V26.4416C44.7998 27.3023 44.1021 28 43.2414 28H2.35821C1.49749 28 0.799805 27.3023 0.799805 26.4416V26.3585C0.799805 25.4978 1.49759 24.8 2.35821 24.8Z" fill="white"/>
<path d="M1.59977 44H46.3998C46.8416 44 47.1998 44.3582 47.1998 44.8V46.4C47.1998 46.8418 46.8416 47.2 46.3998 47.2H1.59977C1.15793 47.2 0.799805 46.8417 0.799805 46.4V44.8C0.799711 44.3582 1.15793 44 1.59977 44Z" fill="#7F7E7E"/>
<path d="M1.57896 44H44.0205C44.4508 44 44.7997 44.3488 44.7997 44.7792V46.4207C44.7997 46.851 44.4508 47.1999 44.0205 47.1999H1.57896C1.14865 47.1999 0.799805 46.851 0.799805 46.4207V44.7792C0.799711 44.3489 1.14865 44 1.57896 44Z" fill="white"/>
<path d="M45.6 4.8C46.9254 4.8 48 3.72544 48 2.4C48 1.07456 46.9255 0 45.6 0H2.4C1.07456 0 0 1.07456 0 2.4C0 3.72544 1.07456 4.8 2.4 4.8H3.19997V24H2.4C1.07456 24 0 25.0746 0 26.4C0 27.7254 1.07456 28.8 2.4 28.8H45.6C46.9254 28.8 48 27.7254 48 26.4C48 25.0746 46.9255 24 45.6 24H44.8V4.8H45.6ZM1.60003 2.4C1.60059 1.95844 1.95844 1.60059 2.4 1.60003H45.6C46.0418 1.60003 46.4 1.95825 46.4 2.4C46.4 2.84175 46.0418 3.19997 45.6 3.19997H2.4C1.95844 3.19941 1.60059 2.84156 1.60003 2.4ZM46.4 26.4C46.3994 26.8416 46.0416 27.1994 45.6 27.2H2.4C1.95816 27.2 1.60003 26.8418 1.60003 26.4C1.60003 25.9583 1.95825 25.6 2.4 25.6H45.6C46.0416 25.6006 46.3994 25.9584 46.4 26.4ZM43.2 24H4.8V4.8H43.2V24Z" fill="#151515"/>
<path d="M46.4 43.2H44.7999V42.1715C44.7794 40.146 43.6171 38.3057 41.797 37.4168C43.0713 36.329 43.5326 34.5624 42.9529 32.9905C42.3732 31.4186 40.8753 30.3745 39.1999 30.3745C37.5245 30.3745 36.0265 31.4186 35.4469 32.9905C34.8672 34.5624 35.3285 36.329 36.6027 37.4168C34.7827 38.3058 33.6203 40.146 33.5998 42.1715V43.2H29.5998V42.1715C29.5792 40.146 28.417 38.3057 26.5969 37.4168C27.8711 36.329 28.3325 34.5624 27.7527 32.9905C27.1731 31.4186 25.6751 30.3745 23.9997 30.3745C22.3243 30.3745 20.8264 31.4186 20.2467 32.9905C19.6671 34.5624 20.1283 36.329 21.4026 37.4168C19.5825 38.3058 18.4202 40.146 18.3997 42.1715V43.2H14.4V42.1715C14.3795 40.146 13.2172 38.3057 11.3971 37.4168C12.6713 36.329 13.1327 34.5624 12.5529 32.9905C11.9733 31.4186 10.4753 30.3745 8.79994 30.3745C7.12453 30.3745 5.62659 31.4186 5.04694 32.9905C4.46728 34.5624 4.92853 36.329 6.20278 37.4168C4.38272 38.3058 3.22041 40.146 3.19987 42.1715V43.2H1.60003C0.716719 43.2008 0.00084375 43.9167 0 44.8V46.4C0.00084375 47.2834 0.716719 47.9991 1.60003 48.0001H46.4001C47.2834 47.9992 47.9992 47.2834 48.0001 46.4V44.8C47.9992 43.9167 47.2833 43.2008 46.4 43.2ZM36.8 34.4C36.8 33.0745 37.8745 32 39.2 32C40.5254 32 41.6 33.0745 41.6 34.4C41.6 35.7254 40.5254 36.7999 39.2 36.7999C37.8751 36.7985 36.8015 35.7248 36.8 34.4ZM35.2 42.1715C35.3246 40.0535 37.0785 38.3999 39.2001 38.3999C41.3216 38.3999 43.0754 40.0535 43.2001 42.1715V43.2H35.2001V42.1715H35.2ZM21.6 34.4C21.6 33.0745 22.6746 32 24 32C25.3255 32 26.4 33.0745 26.4 34.4C26.4 35.7254 25.3255 36.7999 24 36.7999C22.6751 36.7985 21.6014 35.7248 21.6 34.4ZM20 42.1715C20.1246 40.0535 21.8784 38.3999 24 38.3999C26.1216 38.3999 27.8753 40.0535 28 42.1715V43.2H20.0001V42.1715H20ZM6.40003 34.4C6.40003 33.0745 7.47459 32 8.80003 32C10.1255 32 11.2 33.0745 11.2 34.4C11.2 35.7254 10.1255 36.7999 8.80003 36.7999C7.47516 36.7985 6.40144 35.7248 6.40003 34.4ZM4.8 42.1715C4.86731 40.0273 6.65559 38.3412 8.80003 38.4C10.9444 38.3412 12.7327 40.0273 12.8001 42.1715V43.2H4.8V42.1715ZM1.60003 46.4V44.7999H46.4001L46.4012 46.4H1.60003Z" fill="#151515"/>
<path d="M22.839 12.2812V9.09375L14.625 13.155V15.6433L22.839 19.7046V16.5172L17.854 14.4866V14.3118L22.839 12.2812Z" fill="#151515"/>
<path d="M25.161 12.2812L30.146 14.3118V14.4866L25.161 16.5172V19.7046L33.375 15.6433V13.155L25.161 9.09375V12.2812Z" fill="#151515"/>
</g>
<defs>
<clipPath id="clip0_294:423">
<rect width="48" height="48" fill="white"/>
</clipPath>
</defs>
</svg>
