<svg width="23" height="16" viewBox="0 0 23 16" fill="none" xmlns="http://www.w3.org/2000/svg">
<path d="M9.31397 11.6229C9.43579 12.2301 9.68392 12.8045 10.0421 13.3083C10.4002 13.8122 10.8603 14.2342 11.3921 14.5466C8.68287 16.4826 4.29693 16.3831 1.83602 14.387C0.820291 13.5645 0.379643 12.4191 0.258278 11.1948C-0.0815434 7.76791 0.155583 4.32598 0.0902329 0.891559C0.0808971 0.416486 0.329228 0.315087 0.7344 0.328232C1.57275 0.341376 2.41484 0.367665 3.24945 0.328232C3.87682 0.292554 4.04673 0.534786 4.04113 1.13567C4.01499 3.82274 4.02806 6.50981 4.02993 9.19688C4.02993 9.54051 4.04673 9.88414 4.05793 10.2278C4.10088 11.4314 4.5714 12.3384 5.78692 12.712C7.00243 13.0857 8.0499 12.851 8.92186 11.9027C9.02269 11.7844 9.08244 11.6173 9.31397 11.6229Z" fill="#24BECA"/>
<path d="M13.3283 6.28823C13.2238 7.89372 13.5412 9.871 13.0987 11.8164C13.0082 12.2427 12.8762 12.659 12.7047 13.0594C12.096 14.4133 11.4351 14.4715 10.5201 13.2622C9.67059 12.1356 9.46707 10.808 9.44093 9.45977C9.39799 7.20646 9.41106 4.95315 9.44093 2.69984C9.46147 0.784525 11.2819 -0.38344 13.0576 0.337619C13.431 0.48784 13.3227 0.790159 13.3265 1.04741C13.3414 1.86048 13.3265 2.67167 13.3265 3.4885L13.3283 6.28823Z" fill="#976695"/>
<path d="M15.4961 13.0611L16.5286 13.0705C16.5212 13.0313 16.3214 13.0051 15.4961 13.0611Z" fill="#E11D65"/>
<path d="M22.6436 0.780773C22.6324 0.746973 22.6174 0.713174 22.6174 0.713174L22.6044 0.683129C22.5913 0.65684 22.582 0.641818 22.582 0.641818C22.5706 0.621757 22.5581 0.602326 22.5446 0.583608C22.5137 0.543105 22.4779 0.506534 22.4382 0.474698C22.3305 0.403155 22.203 0.367666 22.0741 0.373299C21.1648 0.373299 20.9426 0.399587 20.9426 0.399587C20.037 0.508497 19.8391 0.587364 19.714 0.660597C19.5607 0.741045 19.4177 0.84005 19.2883 0.955405C19.2377 1.0154 19.1903 1.07808 19.1464 1.14318C19.0225 1.3275 18.9297 1.53117 18.8719 1.74594C18.8427 1.86128 18.8221 1.97865 18.8103 2.09708C18.801 2.31302 18.7842 2.66041 18.7711 3.10544C18.7263 4.6452 18.7823 6.32392 18.7711 8.32748C18.7711 8.9171 18.7711 9.50859 18.7599 10.0982C18.7412 11.6436 18.0354 12.5243 16.6295 12.8116C16.0189 12.919 15.391 12.8627 14.809 12.6482C14.6239 12.6195 14.4509 12.538 14.3105 12.4135C14.1536 12.2576 14.0715 12.0492 13.9669 12.068C13.9258 12.068 13.8978 12.1149 13.881 12.1431C13.9083 12.2578 13.9585 12.3658 14.0285 12.4604C14.19 12.6334 14.3923 12.7625 14.6167 12.836C14.9013 12.9506 15.1984 13.0313 15.5017 13.0763C15.7038 13.1061 15.908 13.1193 16.1123 13.1158C16.2534 13.1141 16.3943 13.104 16.5342 13.0857C17.9626 12.9224 18.6553 12.2877 19.04 10.793C19.0549 8.46831 19.0624 6.14177 19.0941 3.81711C19.1035 3.07727 18.9746 2.32805 19.2117 1.59948C19.252 1.50266 19.3007 1.40965 19.3574 1.32157C19.4122 1.23299 19.4747 1.14942 19.5441 1.07182C19.5814 1.04741 19.6393 1.00986 19.7121 0.970426C20.2723 0.660596 20.7746 0.658718 21.6801 0.664352C21.9919 0.664352 22.1413 0.681252 22.2589 0.793917C22.4457 0.981693 22.4214 1.29903 22.4139 1.40043C22.1656 4.53441 22.4401 7.69092 22.3075 10.8343C22.2981 11.1136 22.2668 11.3917 22.2141 11.6661C22.1843 11.822 22.1562 11.9365 22.1488 11.9647C22.0767 12.2575 21.976 12.5424 21.8482 12.8153C21.5406 13.5373 21.0078 14.1391 20.3302 14.5297C19.6036 14.9711 18.8073 15.2842 17.9757 15.4554C17.0016 15.675 16.0005 15.7484 15.0051 15.6733C14.9331 15.6403 14.8571 15.617 14.7791 15.6038L12.7253 14.9672C12.5217 14.8865 12.2734 14.5917 12.1166 14.8377C12.0083 15.0104 12.3163 15.1212 12.5273 15.1344C13.1547 15.5644 13.8848 15.6977 14.6092 15.8423C15.7688 16.0726 16.9644 16.0444 18.112 15.7596C18.9809 15.5457 19.8096 15.1912 20.5654 14.71L21.5252 13.8406L22.0237 13.0444C22.1096 12.8566 22.2701 12.4923 22.4438 12.0285C22.5176 11.766 22.5737 11.4987 22.6118 11.2286C22.6537 10.9276 22.6718 10.6237 22.666 10.3198C22.6604 9.82218 22.6753 0.878417 22.6436 0.780773Z" fill="#E11D65"/>
</svg>
